<svg width="20" height="25" viewBox="0 0 20 25" fill="none" xmlns="http://www.w3.org/2000/svg">
<path d="M10.2428 12.1867C11.8236 12.1867 13.5935 12.0117 14.7228 10.7214C15.6725 9.63637 15.9805 7.95871 15.6631 5.59737C15.2198 2.30154 13.1933 0.333374 10.2428 0.333374C7.29231 0.333374 5.2658 2.30154 4.82247 5.59971C4.50514 7.95871 4.81315 9.63637 5.76281 10.7214C6.89215 12.0129 8.66197 12.1867 10.2428 12.1867ZM6.55614 5.8307C6.74514 4.4307 7.47431 2.08337 10.2428 2.08337C13.0113 2.08337 13.7405 4.43187 13.9295 5.8307C14.171 7.63904 13.996 8.89554 13.4045 9.56987C12.8736 10.1765 11.9275 10.4367 10.2428 10.4367C8.55814 10.4367 7.61198 10.1765 7.08114 9.56987C6.48964 8.89554 6.31464 7.63787 6.55614 5.8307ZM19.9028 20.8434C18.8796 16.7297 14.9071 13.855 10.2428 13.855C5.57848 13.855 1.60598 16.7297 0.58281 20.8434C0.382143 21.6507 0.550139 22.4767 1.04364 23.1067C1.51964 23.7134 2.25697 24.0634 3.06547 24.0634H17.4201C18.2286 24.0634 18.966 23.7134 19.442 23.1067C19.9366 22.4767 20.1035 21.6519 19.9016 20.8434H19.9028ZM18.0641 22.0287C17.9171 22.2154 17.6955 22.3157 17.4201 22.3157H3.06547C2.79131 22.3157 2.56847 22.2165 2.42147 22.0287C2.26164 21.8257 2.21148 21.548 2.28148 21.2657C3.10981 17.9349 6.38464 15.6074 10.2428 15.6074C14.101 15.6074 17.3758 17.9337 18.2041 21.2657C18.2741 21.548 18.224 21.8257 18.0641 22.0287Z" fill="black"/>
</svg>
